<svg width="47" height="47" viewBox="0 0 47 47" fill="none" xmlns="http://www.w3.org/2000/svg">
<path d="M21.8502 16.6994V21.8502H16.6994C15.7881 21.8502 15.0496 22.5887 15.0496 23.5C15.0496 24.4112 15.7881 25.1498 16.6994 25.1498H21.8502V30.3006C21.8502 31.2118 22.5887 31.9504 23.5 31.9504C24.4112 31.9504 25.1402 31.2118 25.1402 30.3006V25.1498H30.291C31.2022 25.1498 31.9408 24.4112 31.9408 23.5C31.9408 22.5887 31.2022 21.8502 30.291 21.8502H25.1402V16.6994C25.1402 15.7881 24.4016 15.0496 23.5 15.0496C22.5983 15.0496 21.8502 15.7881 21.8502 16.6994Z" fill="#290000"/>
<path d="M6.87735 6.87735C2.44592 11.3184 0 17.2173 0 23.5C0 29.7827 2.44592 35.6816 6.88694 40.1227C11.3184 44.5541 17.2269 47 23.5 47C29.7731 47 35.6816 44.5541 40.1227 40.1131C44.5541 35.6816 47 29.7731 47 23.5C47 17.2269 44.5541 11.3184 40.1131 6.87735C35.6816 2.44592 29.7827 0 23.5 0C17.2269 0 11.3184 2.44592 6.87735 6.87735ZM43.71 23.5C43.71 28.9002 41.6094 33.9743 37.7918 37.7918C33.9743 41.6094 28.9002 43.71 23.5 43.71C18.0998 43.71 13.0257 41.6094 9.20816 37.7918C5.39061 33.9743 3.29 28.9002 3.29 23.5C3.29 18.0998 5.39061 13.0257 9.20816 9.20816C13.0257 5.39061 18.0998 3.29 23.5 3.29C28.9002 3.29 33.9743 5.39061 37.7918 9.20816C41.6094 13.0257 43.71 18.0998 43.71 23.5Z" fill="#290000"/>
</svg>
