<svg width="512" height="512" viewBox="0 0 512 512" fill="none" xmlns="http://www.w3.org/2000/svg">
<path d="M473.043 411.826H439.652V183.651C439.652 82.224 357.428 0 256.001 0H256C154.572 0 72.348 82.224 72.348 183.651V411.826H38.957C20.516 411.826 5.56601 426.776 5.56601 445.217V495.304C5.56601 504.524 13.041 512 22.262 512H489.74C498.96 512 506.436 504.525 506.436 495.304V445.217C506.435 426.776 491.484 411.826 473.043 411.826ZM105.739 183.652C105.739 100.5 173.625 32.915 256.88 33.393C339.794 33.87 406.26 102.389 406.26 185.304V411.825H105.739V183.652ZM473.043 478.609H38.957V445.218H473.044V478.609H473.043Z" fill="#290000"/>
<path d="M322.783 166.957H272.696V116.87C272.696 107.65 265.221 100.174 256 100.174C246.78 100.174 239.304 107.649 239.304 116.87V166.957H189.217C179.997 166.957 172.521 174.432 172.521 183.653C172.521 192.873 179.996 200.349 189.217 200.349H239.304V283.827C239.304 293.047 246.779 300.523 256 300.523C265.22 300.523 272.696 293.048 272.696 283.827V200.349H322.783C332.003 200.349 339.479 192.874 339.479 183.653C339.478 174.432 332.003 166.957 322.783 166.957Z" fill="#290000"/>
</svg>
