<svg width="40" height="40" viewBox="0 0 40 40" fill="none" xmlns="http://www.w3.org/2000/svg">
<path d="M19.8203 12.9647L24.9803 18.6824C24.9491 17.1509 24.4113 15.6942 23.4812 14.6221C22.5512 13.5499 21.3024 12.9469 20.0003 12.9412L19.8203 12.9647Z" fill="#290000"/>
<path d="M16.4 9.17647C17.5296 8.56577 18.7568 8.24493 20 8.23529C22.3869 8.23529 24.6761 9.35084 26.364 11.3365C28.0518 13.3222 29 16.0154 29 18.8235C28.9976 20.0707 28.801 21.3068 28.42 22.4706L34 28.5647C36.4913 25.7785 38.5252 22.4763 40 18.8235C40 18.8235 34 2.35294 20 2.35294C17.2424 2.33813 14.5142 3.02017 12 4.35294L16.4 9.17647ZM31.74 30.7059L26 24.3765L24 22.2353L16.88 14.2588L14 11.0353L9.42 6L4 0L2 2.35294L7.1 8C4.11119 10.9786 1.69159 14.6671 0 18.8235C0 18.8235 6 35.2941 20 35.2941C23.2388 35.3128 26.4297 34.3743 29.28 32.5647L36 40L38 37.6471L31.74 30.7059V30.7059ZM20 29.4118C17.6131 29.4118 15.3239 28.2962 13.636 26.3105C11.9482 24.3249 11 21.6317 11 18.8235C11.011 17.0047 11.4246 15.2206 12.2 13.6471L15.26 17.0353C15.0943 17.6117 15.0066 18.2151 15 18.8235C14.998 19.7812 15.1955 20.7248 15.5753 21.5719C15.9552 22.4189 16.5057 23.1434 17.1787 23.6821C17.8517 24.2208 18.6267 24.5572 19.4358 24.6619C20.245 24.7665 21.0636 24.6362 21.82 24.2824L24.9 27.6941C23.4436 28.8157 21.7406 29.4126 20 29.4118V29.4118Z" fill="#290000"/>
</svg>
