<svg width="47" height="47" viewBox="0 0 47 47" fill="none" xmlns="http://www.w3.org/2000/svg">
<path d="M23.5 0C10.5421 0 0 10.5422 0 23.4999C0 36.4579 10.5421 47 23.5 47C36.4579 47 47 36.4579 47 23.4999C47 10.5422 36.4579 0 23.5 0ZM23.5 42.7272C12.8981 42.7272 4.27273 34.102 4.27273 23.5001C4.27273 12.8982 12.8981 4.27295 23.5 4.27295C34.1019 4.27295 42.7273 12.8982 42.7273 23.4999C42.7273 34.1021 34.1019 42.7272 23.5 42.7272Z" fill="#290000"/>
<path d="M23.5 18.5161C22.3202 18.5161 21.3636 19.4727 21.3636 20.6526V34.8933C21.3636 36.0732 22.3202 37.0298 23.5 37.0298C24.6799 37.0298 25.6364 36.0732 25.6364 34.8933V20.6526C25.6364 19.4728 24.6799 18.5161 23.5 18.5161Z" fill="#290000"/>
<path d="M23.5 9.97064C22.9374 9.97064 22.3875 10.1985 21.9889 10.5959C21.5915 10.9933 21.3636 11.5445 21.3636 12.1071C21.3636 12.6697 21.5915 13.2195 21.9889 13.6183C22.3863 14.0157 22.9374 14.2436 23.5 14.2436C24.0626 14.2436 24.6123 14.0157 25.011 13.6183C25.4084 13.2195 25.6364 12.6697 25.6364 12.1071C25.6364 11.5445 25.4084 10.9933 25.011 10.5959C24.6123 10.1984 24.0626 9.97064 23.5 9.97064Z" fill="#290000"/>
</svg>
