<svg width="20" height="21" viewBox="0 0 20 21" fill="none" xmlns="http://www.w3.org/2000/svg">
<path d="M19.9718 0.789478C19.9678 0.76759 19.9565 0.746531 19.9499 0.725637L19.9366 0.687995C19.9293 0.661132 19.9205 0.634435 19.9101 0.607738C19.8997 0.581869 19.8862 0.557825 19.8733 0.533781L19.8546 0.498627C19.8451 0.479391 19.8352 0.460156 19.8232 0.441086C19.7541 0.334131 19.6666 0.243758 19.5635 0.172123C19.5466 0.16035 19.5285 0.150732 19.5106 0.141115L19.4802 0.124035C19.455 0.109277 19.4299 0.095016 19.4026 0.082911C19.3792 0.0731275 19.3555 0.0658313 19.3315 0.0588668L19.2942 0.0472593C19.2723 0.0396315 19.2502 0.0326669 19.2274 0.0278581C19.1754 0.0172455 19.1206 0.0067987 19.0634 0.00563795C19.0569 0.00497466 19.0496 0 19.0448 0H15.1472C14.6307 0 14.2107 0.436444 14.2107 0.971551C14.2107 1.50682 14.6307 1.9431 15.1472 1.9431H16.7843L12.6084 6.27371C11.2401 5.15988 9.53784 4.54982 7.79878 4.54982C3.49843 4.54966 0 8.17635 0 12.6331C0 17.0896 3.49843 20.716 7.79878 20.716C12.0991 20.716 15.5977 17.0903 15.5977 12.6335C15.5977 10.8313 15.016 9.06731 13.9412 7.64904L18.1251 3.32208V5.01877C18.1251 5.55388 18.5462 5.98932 19.0625 5.98932C19.5789 5.98932 20 5.55404 20 5.01877V0.97951C20.0002 0.916664 19.984 0.852657 19.9718 0.789478ZM7.79878 18.7754C4.53108 18.7754 1.87265 16.0202 1.87265 12.6338C1.87265 9.24706 4.53108 6.49193 7.79878 6.49193C11.0663 6.49193 13.7251 9.24706 13.7251 12.6338C13.7249 16.0202 11.0663 18.7754 7.79878 18.7754Z" fill="#290000"/>
</svg>
