<svg width="40" height="40" viewBox="0 0 40 40" fill="none" xmlns="http://www.w3.org/2000/svg">
<path d="M20 12.8571C19.0111 12.8571 18.0444 13.2761 17.2221 14.0609C16.3999 14.8458 15.759 15.9614 15.3806 17.2665C15.0022 18.5717 14.9031 20.0079 15.0961 21.3935C15.289 22.7791 15.7652 24.0518 16.4645 25.0508C17.1637 26.0497 18.0546 26.73 19.0245 27.0056C19.9945 27.2812 20.9998 27.1398 21.9134 26.5991C22.827 26.0585 23.6079 25.143 24.1573 23.9684C24.7068 22.7937 25 21.4127 25 20C25 18.1056 24.4732 16.2888 23.5355 14.9492C22.5979 13.6097 21.3261 12.8571 20 12.8571ZM20 32.8571C18.22 32.8571 16.4799 32.1031 14.9999 30.6903C13.5198 29.2776 12.3663 27.2696 11.6851 24.9202C11.0039 22.5709 10.8257 19.9857 11.1729 17.4917C11.5202 14.9977 12.3774 12.7067 13.636 10.9086C14.8947 9.11052 16.4984 7.886 18.2442 7.3899C19.99 6.89381 21.7996 7.14842 23.4442 8.12155C25.0887 9.09468 26.4943 10.7426 27.4832 12.857C28.4722 14.9713 29 17.4571 29 20C29 23.4099 28.0518 26.6802 26.364 29.0914C24.6761 31.5026 22.3869 32.8571 20 32.8571V32.8571ZM20 0C6 0 0 20 0 20C0 20 6 40 20 40C34 40 40 20 40 20C40 20 34 0 20 0Z" fill="#290000"/>
</svg>
