<svg width="40" height="40" viewBox="0 0 40 40" fill="none" xmlns="http://www.w3.org/2000/svg">
<path d="M35.175 16H32.5V10C32.5 10 32.5 0 20 0C7.5 0 7.5 10 7.5 10V16H4.825C3.54533 16 2.31807 16.4067 1.41321 17.1306C0.508347 17.8545 0 18.8363 0 19.86V36.16C0.00660803 37.1803 0.517871 38.1569 1.42202 38.8765C2.32617 39.5961 3.54965 40 4.825 40H35.175C36.4547 40 37.6819 39.5933 38.5868 38.8694C39.4917 38.1455 40 37.1637 40 36.14V19.86C40 18.8363 39.4917 17.8545 38.5868 17.1306C37.6819 16.4067 36.4547 16 35.175 16V16ZM20 32C19.0111 32 18.0444 31.7654 17.2221 31.3259C16.3999 30.8864 15.759 30.2616 15.3806 29.5307C15.0022 28.7998 14.9031 27.9956 15.0961 27.2196C15.289 26.4437 15.7652 25.731 16.4645 25.1716C17.1637 24.6122 18.0546 24.2312 19.0245 24.0769C19.9945 23.9225 20.9998 24.0017 21.9134 24.3045C22.827 24.6072 23.6079 25.1199 24.1573 25.7777C24.7068 26.4355 25 27.2089 25 28C25 29.0609 24.4732 30.0783 23.5355 30.8284C22.5979 31.5786 21.3261 32 20 32ZM27.5 16H12.5V11C12.5 8 12.5 4 20 4C27.5 4 27.5 8 27.5 11V16Z" fill="#290000"/>
</svg>
